<svg xmlns="http://www.w3.org/2000/svg" width="1000" height="500" version="1.0"><script/><path fill-rule="evenodd" d="M984.5105 25.415961H753.99628V103.9274h67.39781v270.66615h95.71893V103.9274h67.39748V25.415961zm-253.45829 348.81894h-95.71919V25.415961h95.71919v348.81894zm-111.85159 0H512.72677l-126.54981-135.87062v-77.79425l122.60625-135.51274h109.70066l-141.24836 175.66465 141.96511 173.51296zM363.2329 374.2349zM363.2329 374.2349z"/><path fill="#32a189" fill-rule="evenodd" d="M90.415838 153.04142c-18.283583 22.22712-34.057265 46.60505-46.246544 72.77533l319.06361 148.41815-272.81706-221.19348z"/><path fill="#32a189" fill-rule="evenodd" d="M363.2329 374.2349 214.45625 57.681003c-26.52903 12.188587-50.90675 27.24608-73.13364 45.170947L363.2329 374.2349z"/><path fill-rule="evenodd" d="m363.2329 374.2349.35846-348.81894h-2.86773c-28.32151 0-55.9259 3.585389-82.45464 10.038217l84.96391 338.78072zM363.2329 374.2349zM363.2329 374.2349z"/><path fill="#32a189" fill-rule="evenodd" d="M21.225547 288.91246c-7.169814 27.24608-10.754847 55.92567-11.113434 85.32244h353.12079l-342.00735-85.32244z"/><path d="M989.33109 452.77847c-1.44216 1.19131-5.95591 3.19757-9.84307 3.19757-5.58122 0-10.53349-4.32639-10.53349-10.65844h22.82176c0-10.28324-3.44884-18.05798-14.10697-18.05798-9.02821 0-14.98579 6.70993-14.98579 16.17705 0 10.40815 5.20478 17.31512 16.55317 17.31512 5.26576 0 7.83717-1.26476 10.09439-2.07972v-5.8936zm-20.37656-11.84928c.43881-4.1385 2.82115-8.90364 8.58997-8.90364 5.07818 0 7.96189 4.0123 7.96189 8.90364h-16.55186zm-19.07245 19.05915h5.89349v-31.97639h-5.89349v31.97639zm6.26966-45.76941h-6.646v6.64602h6.646v-6.64602zm-376.41865 1.38813h6.5511v6.67707h-6.5511zm14.01317 0h6.5511v6.67707h-6.5511zm18.77129 44.38128h5.89359v-14.54578c0-8.02449 3.44859-13.04061 8.71454-13.04061 1.00367 0 2.19497.12495 3.26126.5638v-5.26609c-1.25373-.25119-2.13262-.44004-3.88735-.44004-3.38615 0-6.77237 2.38375-8.33984 5.70613h-.12495v-4.9538h-5.51723v31.97639zm-8.36416-32.73985h-5.8936v14.79694c0 7.7748-3.00852 13.16716-9.71835 13.16716-5.14106-.31395-6.77084-3.94995-6.77084-11.41085v-16.55325h-5.89359v18.99828c0 8.5894 3.69861 13.74157 11.97578 13.74157 4.45104 0 8.71475-2.20468 10.471-5.84209h.12494v5.07864h5.70469v-31.9764zm-317.75366 32.73985h5.89359v-14.54578c0-8.02449 3.44859-13.04061 8.71453-13.04061 1.00368 0 2.19498.12495 3.26127.5638v-5.26609c-1.25373-.25119-2.13263-.44004-3.88735-.44004-3.38616 0-6.77237 2.38375-8.33984 5.70613h-.12495v-4.9538h-5.51723v31.97639zm654.98132-31.97639h-5.45477v4.76636h-.12495c-1.7551-3.44852-4.8898-5.51869-10.53347-5.51869-9.65567 0-14.29554 8.77823-14.29554 16.99202 0 8.27577 4.51485 15.7367 13.66954 15.7367 4.07452 0 8.21335-1.63013 10.72058-4.9522h.12515v3.13467c0 6.78232-3.6988 10.9833-9.90591 10.9833-4.326 0-7.02239-.81639-11.537-2.88508l-.62631 5.45485c5.14092 1.75618 8.08696 2.19507 11.47334 2.19507 11.47447 0 16.48919-5.58123 16.48919-15.30935v-30.59765zm-15.23572 27.21154c-5.51729 0-8.90182-5.26609-8.90182-11.28578 0-5.45477 2.94603-11.91216 8.90182-11.91216 6.2699 0 9.34241 5.70502 9.34241 12.35105 0 5.95722-3.82371 10.84689-9.34241 10.84689zm-53.48143-11.22331c0 9.15472 6.646 16.75161 16.3018 16.75161 9.59354 0 16.23948-7.59689 16.23948-16.75161 0-9.7182-6.52097-16.74056-16.23948-16.74056-9.78072 0-16.3018 7.02236-16.3018 16.74056zm6.27115 0c0-6.08074 3.69845-11.97463 10.03065-11.97463 6.26986 0 9.9699 5.89389 9.9699 11.97463 0 5.70608-3.07253 11.97586-9.9699 11.97586-6.95964 0-10.03065-6.26978-10.03065-11.97586zm-20.81663 15.98816h5.89355v-47.02312h-5.89355v47.02312zm-41.19324-15.98816c0 9.15472 6.64569 16.75161 16.30175 16.75161 9.59324 0 16.23931-7.59689 16.23931-16.75161 0-9.7182-6.5211-16.74056-16.23931-16.74056-9.78094 0-16.30175 7.02236-16.30175 16.74056zm6.27082 0c0-6.08074 3.69849-11.97463 10.03093-11.97463 6.26971 0 9.9696 5.89389 9.9696 11.97463 0 5.70608-3.07239 11.97586-9.9696 11.97586-6.95951 0-10.03093-6.26978-10.03093-11.97586zm-42.44695 15.98816h5.89359V445.1915c0-7.77343 3.01004-13.16595 9.71821-13.16595 5.1412.3127 6.77103 3.95024 6.77103 11.41112v16.55167h5.89359v-18.99667c0-8.58972-3.69852-13.73205-11.97433-13.73205-4.45236 0-8.71621 2.19508-10.47099 5.83106h-.12494v-5.07873h-5.7062v31.97639zm-38.30816 0h5.89359V445.1915c0-7.77343 3.00974-13.16595 9.71821-13.16595 5.14096.3127 6.77074 3.95024 6.77074 11.41112v16.55167h5.89388v-18.99667c0-8.58972-3.6988-13.73205-11.97463-13.73205-4.45236 0-8.15087 1.94364-10.28319 5.32973h-.12495v-19.62413h-5.89359v47.02312zm-7.0223-31.47347c-1.69231-.69-4.76451-1.25525-7.14713-1.25525-9.78083 0-16.30173 7.02236-16.30173 16.74056 0 9.15472 6.64577 16.75161 16.30173 16.75161 2.13122 0 4.9535-.18885 7.39851-1.32725l-.43857-5.26584c-1.81876 1.19129-4.32626 1.81734-6.33244 1.81734-7.58718 0-10.65953-6.26978-10.65953-11.97586 0-6.08074 3.69985-11.97463 10.28324-11.97463 1.88001 0 4.13734.43884 6.39479 1.37868l.50113-4.88936zm-31.16138 24.2636c-1.44215 1.19131-5.95589 3.19757-9.84301 3.19757-5.58129 0-10.53352-4.32639-10.53352-10.65844h22.82174c0-10.28324-3.44883-18.05798-14.1069-18.05798-9.02823 0-14.98582 6.70993-14.98582 16.17705 0 10.40815 5.20483 17.31512 16.55311 17.31512 5.26579 0 7.83719-1.26476 10.0944-2.07972v-5.8936zm-20.37653-11.84928c.43885-4.1385 2.82114-8.90364 8.58996-8.90364 5.07816 0 7.96187 4.0123 7.96187 8.90364h-16.55183zm-25.08009 19.05915h6.26983v-38.24596h13.60555v-5.51725h-33.48131v5.51725h13.60593v38.24596zm-104.32843 0h5.89368v-27.21003h8.46447v-4.76636h-8.46447v-3.44698c0-4.32752.62609-7.58744 5.70438-7.58744 1.00403 0 2.13273.12495 2.82266.37611l.24973-4.76447c-1.19106-.18907-2.44466-.37642-3.9497-.37642-8.71437 0-10.72075 5.07873-10.72075 12.85321v2.94599h-7.52474v4.76636h7.52474v27.21003zm-27.06455-31.97639h-8.46462v-9.27811l-5.89359 1.87971v7.3984h-7.21102v4.76636h7.21102v18.68427c0 6.39461 3.76111 9.28921 9.84347 9.28921 1.88106 0 3.69852-.50095 5.01606-.88836v-5.01622c-.87744.56495-2.19508 1.12883-4.0139 1.12883-2.6946 0-4.95204-2.00626-4.95204-5.70476v-17.49297h8.46462v-4.76636zm-27.0238 0h-5.89359v14.79693c0 7.77481-3.00853 13.16716-9.71835 13.16716-5.14107-.31395-6.77085-3.94994-6.77085-11.41085v-16.55324h-5.89359v18.99827c0 8.5894 3.69862 13.74157 11.97578 13.74157 4.45104 0 8.71476-2.20468 10.47101-5.84208h.12493v5.07863h5.7047v-31.97639zm-35.67485 0h-8.46461v-9.27811l-5.89342 1.87971v7.3984h-7.21117v4.76636h7.21117v18.68427c0 6.39461 3.76101 9.28921 9.84319 9.28921 1.88124 0 3.69864-.50095 5.01622-.88836v-5.01622c-.87741.56495-2.19516 1.12883-4.01388 1.12883-2.69465 0-4.95211-2.00626-4.95211-5.70476v-17.49297h8.46461v-4.76636zm-33.6698 31.97639h5.89349v-31.97639h-5.89349v31.97639zm6.26966-45.76941h-6.646v6.64602h6.646v-6.64602zm-14.42052 13.79302h-8.46474v-9.27811l-5.89359 1.87971v7.3984h-7.21101v4.76636h7.21101v18.68427c0 6.39461 3.76092 9.28921 9.84329 9.28921 1.88125 0 3.69864-.50095 5.01618-.88836v-5.01622c-.8775.56495-2.19492 1.12883-4.0137 1.12883-2.69477 0-4.95218-2.00626-4.95218-5.70476v-17.49297h8.46474v-4.76636zm-44.07831 30.97376c2.69619 1.45224 5.76853 1.76608 8.77692 1.76608 5.70613 0 11.16084-3.14597 11.16084-9.97918 0-10.21978-13.85549-8.33972-13.85549-14.85966 0-2.63369 2.63215-3.8874 5.64214-3.8874 1.38009 0 4.89115.8152 6.20723 1.63011l.50126-5.14079c-2.32007-.69-4.57599-1.25525-7.33592-1.25525-6.33232 0-11.28586 3.19865-11.28586 9.84463 0 8.96607 13.85699 8.46322 13.85699 14.29434 0 3.44862-3.32221 4.57745-6.01855 4.57745-1.69372 0-5.01586-.75255-7.33592-2.25763l-.31364 5.2673zm-35.61229 1.00263h5.89359V445.1915c0-7.77343 3.00987-13.16595 9.71825-13.16595 5.14097.3127 6.77094 3.95024 6.77094 11.41112v16.55167h5.8936v-18.99667c0-8.58972-3.69869-13.73205-11.97444-13.73205-4.45242 0-8.71602 2.19508-10.47082 5.83106h-.12495v-5.07873h-5.70615v31.97639zm-16.86687 0h6.26977v-43.76321h-6.26977v43.76321zm-51.94799-7.20987c-1.44257 1.19131-5.95598 3.19757-9.84337 3.19757-5.58117 0-10.53342-4.32639-10.53342-10.65844h22.82174c0-10.28324-3.44881-18.05798-14.10704-18.05798-9.02826 0-14.98566 6.70993-14.98566 16.17705 0 10.40815 5.20475 17.31512 16.55311 17.31512 5.26596 0 7.83717-1.26476 10.09464-2.07972v-5.8936zm-20.37679-11.84928c.43883-4.1385 2.82126-8.90364 8.58971-8.90364 5.07858 0 7.96208 4.0123 7.96208 8.90364h-16.55179zm-42.44682 19.05915h5.89347V445.1915c0-7.77343 3.00985-13.16595 9.71834-13.16595 5.14103.3127 6.77085 3.95024 6.77085 11.41112v16.55167h5.89359v-18.99667c0-8.58972-3.69851-13.73205-11.9745-13.73205-4.45238 0-8.15081 1.94364-10.28338 5.32973h-.12494v-19.62413h-5.89347v47.02312zm-10.03225-31.97639h-5.89338v14.79693c0 7.77481-3.00857 13.16716-9.71838 13.16716-5.14103-.31395-6.77097-3.94994-6.77097-11.41085v-16.55324h-5.89348v18.99827c0 8.5894 3.69869 13.74157 11.97585 13.74157 4.45103 0 8.71449-2.20468 10.47082-5.84208h.12495v5.07863h5.70463v-31.97639zm-52.6665 31.97639h5.89359v-14.54578c0-8.02449 3.44859-13.04061 8.71453-13.04061 1.00368 0 2.19498.12495 3.26127.5638v-5.26609c-1.25373-.25119-2.13263-.44004-3.88735-.44004-3.38616 0-6.77237 2.38375-8.33985 5.70613h-.12494v-4.9538h-5.51723v31.97639zm-27.0864-1.00263c2.69628 1.45224 5.76863 1.76608 8.77714 1.76608 5.70602 0 11.16079-3.14597 11.16079-9.97918 0-10.21978-13.85556-8.33972-13.85556-14.85966 0-2.63369 2.6323-3.8874 5.6422-3.8874 1.38004 0 4.89101.8152 6.20709 1.63011l.5014-5.14079c-2.31994-.69-4.57607-1.25525-7.33606-1.25525-6.33218 0-11.28579 3.19865-11.28579 9.84463 0 8.96607 13.8572 8.46322 13.8572 14.29434 0 3.44862-3.32245 4.57745-6.01869 4.57745-1.69366 0-5.01593-.75255-7.33598-2.25763l-.31374 5.2673zm-13.98187 1.00263h5.89348v-47.02312h-5.89348v47.02312zm-25.142816 0h5.893593v-14.54578c0-8.02449 3.448563-13.04061 8.714486-13.04061 1.003861 0 2.194954.12495 3.261287.5638v-5.26609c-1.253771-.25119-2.132461-.44004-3.88745-.44004-3.386029 0-6.772306 2.38375-8.339593 5.70613h-.12515v-4.9538h-5.517173v31.97639zM49.607035 435.2855c2.382393-2.00624 5.956024-3.25995 9.278344-3.25995 5.894747 0 7.900926 2.82143 7.900926 8.33867-2.319941-.12494-3.9497-.12494-6.269642-.12494-6.082329 0-14.860854 2.5069-14.860854 10.53341 0 6.95964 4.82866 9.97919 11.725848 9.97919 5.39095 0 8.525937-2.95708 9.905786-4.90081h.124944v4.13735h5.517153c-.124945-.93985-.249868-2.63245-.249868-6.26993v-13.22922c0-8.71474-3.699895-13.22957-12.853212-13.22957-4.076067 0-7.587185 1.25525-10.533291 3.00998l.313763 5.01591zm17.17927 12.28975c0 4.7647-3.072328 8.40079-8.903449 8.40079-2.696093 0-5.9559-1.81734-5.9559-5.20343 0-5.64368 7.899607-6.14495 11.097024-6.14495 1.253607 0 2.507213.12495 3.762325.12495v2.82266zM6.846326 459.98834h6.269849v-21.44286L32.6152 459.98834H41.7699l-22.19539-23.07276 20.565445-20.69045H31.8003l-18.684126 19.24922v-19.24922H6.846326v43.76321z"/></svg>