<svg width="500" height="500" viewBox="0 0 500 500" fill="none" xmlns="http://www.w3.org/2000/svg">
<circle cx="250" cy="250" r="220" stroke="url(#paint0_linear_10_187)" stroke-width="60"/>
<g filter="url(#filter0_d_10_187)">
<mask id="mask0_10_187" style="mask-type:luminance" maskUnits="userSpaceOnUse" x="92" y="74" width="317" height="295">
<path d="M408.5 74.5V368.5H92.5V74.5H408.5Z" fill="white" stroke="white"/>
</mask>
<g mask="url(#mask0_10_187)">
<path d="M296.861 122.786H204.139C171.25 122.786 163.985 138.028 159.759 156.711L144.833 223.21H356.167L341.241 156.711C337.015 138.028 329.75 122.786 296.861 122.786Z" stroke="#ED3D4F" stroke-width="22" stroke-linecap="round" stroke-linejoin="round"/>
<path d="M382.454 331.621C383.907 346.002 371.491 358.417 355.641 358.417H330.809C316.544 358.417 314.563 352.763 312.053 345.756L309.412 338.381C305.713 328.302 303.336 321.542 284.316 321.542H216.69C197.67 321.542 194.896 329.163 191.594 338.381L188.952 345.756C186.442 352.763 184.461 358.417 170.196 358.417H145.365C129.515 358.417 117.099 346.002 118.552 331.621L125.948 256.765C127.797 238.327 131.628 223.208 166.234 223.208H334.772C369.378 223.208 373.208 238.327 375.057 256.765L382.454 331.621Z" stroke="#ED3D4F" stroke-width="22" stroke-linecap="round" stroke-linejoin="round"/>
<path d="M144.833 186.333H131.625" stroke="#ED3D4F" stroke-width="22" stroke-linecap="round" stroke-linejoin="round"/>
<path d="M369.375 186.333H356.167" stroke="#ED3D4F" stroke-width="22" stroke-linecap="round" stroke-linejoin="round"/>
<path opacity="0.4" d="M171.25 272.375H210.875" stroke="#ED3D4F" stroke-width="22" stroke-linecap="round" stroke-linejoin="round"/>
<path opacity="0.4" d="M290.125 272.375H329.75" stroke="#ED3D4F" stroke-width="22" stroke-linecap="round" stroke-linejoin="round"/>
</g>
</g>
<defs>
<filter id="filter0_d_10_187" x="103.429" y="111.786" width="294.148" height="265.214" filterUnits="userSpaceOnUse" color-interpolation-filters="sRGB">
<feFlood flood-opacity="0" result="BackgroundImageFix"/>
<feColorMatrix in="SourceAlpha" type="matrix" values="0 0 0 0 0 0 0 0 0 0 0 0 0 0 0 0 0 0 127 0" result="hardAlpha"/>
<feOffset dy="4"/>
<feGaussianBlur stdDeviation="2"/>
<feComposite in2="hardAlpha" operator="out"/>
<feColorMatrix type="matrix" values="0 0 0 0 0 0 0 0 0 0 0 0 0 0 0 0 0 0 0.25 0"/>
<feBlend mode="normal" in2="BackgroundImageFix" result="effect1_dropShadow_10_187"/>
<feBlend mode="normal" in="SourceGraphic" in2="effect1_dropShadow_10_187" result="shape"/>
</filter>
<linearGradient id="paint0_linear_10_187" x1="444.5" y1="318" x2="250" y2="500" gradientUnits="userSpaceOnUse">
<stop stop-color="#ED505C"/>
<stop offset="1" stop-color="#2F6FFF"/>
</linearGradient>
</defs>
</svg>
